<?xml version="1.0" encoding="UTF-8"?>
<svg width="1024px" height="1024px" viewBox="0 0 1024 1024" version="1.1" xmlns="http://www.w3.org/2000/svg" xmlns:xlink="http://www.w3.org/1999/xlink">
    <title>Sunny Icon</title>
    <defs>
        <path d="M471.702392,0.263204143 C469.309721,0.515053658 461.62799,1.39652696 454.701839,2.02615075 C356.224559,12.3519808 259.258439,54.0330755 180.174384,120.269498 C165.566501,132.358275 132.320974,165.602411 120.231692,180.209682 C54.7480785,258.408957 16.4653508,346.178513 2.36118797,450.066437 C-0.787062658,473.110668 -0.787062658,550.932168 2.36118797,573.976399 C16.4653508,677.864323 54.7480785,765.633879 120.231692,843.833153 C132.320974,858.440425 165.566501,891.684561 180.174384,903.773338 C258.376929,969.254212 346.150157,1007.53534 450.042428,1021.63891 C473.087622,1024.78703 550.912378,1024.78703 573.957572,1021.63891 C677.849843,1007.53534 765.623071,969.254212 843.825616,903.773338 C858.433499,891.684561 891.679026,858.440425 903.768308,843.833153 C969.251922,765.633879 1007.53465,677.864323 1021.63881,573.976399 C1024.78706,550.932168 1024.78706,473.110668 1021.63881,450.066437 C1007.53465,346.178513 969.251922,258.408957 903.768308,180.209682 C891.679026,165.602411 858.433499,132.358275 843.825616,120.269498 C765.874931,55.0404736 677.220193,16.2556483 574.713153,2.52984977 C563.63131,1.01875269 547.512267,0.3891289 517.666851,0.137279386 C494.873517,-0.114570129 474.095062,0.0113546283 471.702392,0.263204143 Z" id="path-1"></path>
        <path d="M476.58218,62.2313318 C474.479247,62.4526839 467.727726,63.2274163 461.640288,63.7807966 C375.087991,72.8562332 289.863863,109.490008 220.356392,167.705613 C207.517432,178.330515 178.297731,207.548994 167.672385,220.387416 C110.118428,289.117247 76.4714997,366.258458 64.0752629,457.566205 C61.3082457,477.819923 61.3082457,546.217726 64.0752629,566.471444 C76.4714997,657.77919 110.118428,734.920402 167.672385,803.650233 C178.297731,816.488655 207.517432,845.707134 220.356392,856.332035 C289.089098,913.883585 366.233536,947.529106 457.545102,959.924824 C477.799668,962.691725 546.200332,962.691725 566.454898,959.924824 C657.766464,947.529106 734.910902,913.883585 803.643608,856.332035 C816.482568,845.707134 845.702269,816.488655 856.327615,803.650233 C913.881572,734.920402 947.5285,657.77919 959.924737,566.471444 C962.691754,546.217726 962.691754,477.819923 959.924737,457.566205 C947.5285,366.258458 913.881572,289.117247 856.327615,220.387416 C845.702269,207.548994 816.482568,178.330515 803.643608,167.705613 C735.132263,110.375416 657.21306,76.2871909 567.118982,64.2235008 C557.379081,62.8953881 543.211954,62.3420078 516.980631,62.1206557 C496.947427,61.8993036 478.685113,62.0099797 476.58218,62.2313318 Z" id="path-3"></path>
    </defs>
    <g id="Sunny-Icon" stroke="none" stroke-width="1" fill="none" fill-rule="evenodd">
        <mask id="mask-2" fill="white">
            <use xlink:href="#path-1"></use>
        </mask>
        <use id="Outer-2" fill="#222222" fill-rule="nonzero" xlink:href="#path-1"></use>
        <mask id="mask-4" fill="white">
            <use xlink:href="#path-3"></use>
        </mask>
        <use id="Outer" fill="#222222" fill-rule="nonzero" xlink:href="#path-3"></use>
        <g id="Group" mask="url(#mask-4)" fill-rule="nonzero">
            <g id="Background">
                <path d="M471.702392,0.263204143 C469.309721,0.515053658 461.62799,1.39652696 454.701839,2.02615075 C356.224559,12.3519808 259.258439,54.0330755 180.174384,120.269498 C165.566501,132.358275 132.320974,165.602411 120.231692,180.209682 C54.7480785,258.408957 16.4653508,346.178513 2.36118797,450.066437 C-0.787062658,473.110668 -0.787062658,550.932168 2.36118797,573.976399 C16.4653508,677.864323 54.7480785,765.633879 120.231692,843.833153 C132.320974,858.440425 165.566501,891.684561 180.174384,903.773338 C258.376929,969.254212 346.150157,1007.53534 450.042428,1021.63891 C473.087622,1024.78703 550.912378,1024.78703 573.957572,1021.63891 C677.849843,1007.53534 765.623071,969.254212 843.825616,903.773338 C858.433499,891.684561 891.679026,858.440425 903.768308,843.833153 C969.251922,765.633879 1007.53465,677.864323 1021.63881,573.976399 C1024.78706,550.932168 1024.78706,473.110668 1021.63881,450.066437 C1007.53465,346.178513 969.251922,258.408957 903.768308,180.209682 C891.679026,165.602411 858.433499,132.358275 843.825616,120.269498 C765.874931,55.0404736 677.220193,16.2556483 574.713153,2.52984977 C563.63131,1.01875269 547.512267,0.3891289 517.666851,0.137279386 C494.873517,-0.114570129 474.095062,0.0113546283 471.702392,0.263204143 Z" id="Outer" fill="#222222"></path>
                <path d="M497.726433,512.001324 L502.257463,512.012488 L507.02596,512.035696 L511.978278,512.071772 L522.473964,512.173931 L528.312559,512.248802 L533.056096,512.32767 L536.864375,512.405988 L540.446307,512.494863 L543.812737,512.594922 L546.974509,512.706794 L549.460807,512.809498 L552.275539,512.94466 L554.487824,513.067654 L556.585599,513.200451 L558.185589,513.313993 L560.462722,513.496915 L561.903595,513.62754 L563.623467,513.800912 L564.938305,513.947909 L566.202349,514.102484 L567.118982,514.223501 C656.31212,526.166554 733.572662,559.695854 801.585443,615.992679 L804.037646,618.033235 L804.854939,618.721762 L805.709749,619.453225 L806.600346,620.225892 L807.999556,621.458369 L808.97205,622.326481 L809.974274,623.229743 L811.529572,624.646757 L813.142031,626.133126 L814.245877,627.159687 L815.94063,628.748672 L818.263987,630.949976 L820.0467,632.655375 L821.251073,633.814979 L823.690183,636.180814 L826.158247,638.597281 L828.641423,641.050541 L831.125869,643.526753 L832.98171,645.390647 L835.435073,647.873719 L837.251706,649.726863 L839.041803,651.565668 L840.799524,653.384295 L842.519031,655.176904 L844.194484,656.937656 L845.820043,658.660713 L846.873146,659.785591 L848.402572,661.432845 L849.386181,662.501783 L850.803254,664.057015 L852.14513,665.549248 L852.995053,666.506187 L853.80723,667.430802 L854.57993,668.321361 L855.311423,669.176136 C855.429809,669.31552 855.546405,669.453341 855.661177,669.589563 L856.327615,670.387416 C913.306032,738.429949 946.853171,814.716475 959.546472,904.831216 L959.972157,907.920059 L960.065353,908.655937 L960.201036,909.828532 L960.331786,911.081032 L960.416213,911.958962 L960.538743,913.338062 L960.65634,914.789176 L960.769005,916.309347 L960.911552,918.438549 L961.04533,920.678246 L961.170339,923.021425 L961.258341,924.8425 L961.368005,927.349897 L961.516059,931.26667 L961.624366,934.658285 L961.701147,937.445259 L961.769158,940.290132 L961.828401,943.18589 L961.867079,945.386883 L961.938145,950.601887 L961.972464,954.378471 L962,958.182514 L962,962.000321 L62.0000002,962.000321 L62.0000002,958.182514 L62.0275356,954.378471 L62.0618553,950.601887 L62.1098763,946.866461 L62.1715987,943.18589 L62.2308415,940.290132 L62.2988532,937.445259 L62.3756338,934.658285 L62.4389738,932.610269 L62.5555015,929.286083 L62.6319947,927.349897 L62.7416585,924.8425 L62.8296609,923.021425 L62.9546702,920.678246 L63.0884483,918.438549 L63.2309952,916.309347 L63.34366,914.789176 L63.4612573,913.338062 L63.583787,911.958962 L63.7112493,910.654836 L63.7989643,909.828532 L63.8888716,909.037741 L63.9809711,908.28334 L64.0752629,907.566205 C76.3475374,817.171536 109.447615,740.661488 165.952936,672.45184 L168.338823,669.589563 L169.049064,668.75333 L169.801377,667.880447 C169.930172,667.732008 170.060648,667.582114 170.19277,667.430802 L171.004947,666.506187 L171.85487,665.549248 L172.74081,664.561714 L174.133466,663.026833 L175.597428,661.432845 L177.126854,659.785591 L178.715906,658.090909 L180.358745,656.354639 L181.480969,655.176904 L183.782425,652.780688 L185.551587,650.954687 L187.956795,648.492667 L189.787874,646.633207 L192.254443,644.14777 L194.115648,642.286643 L195.980031,640.434534 L197.221835,639.207688 L199.694975,636.780724 L201.533856,634.990702 L202.748927,633.814979 L204.550933,632.082158 L206.323027,630.391443 L207.484922,629.290575 L208.629198,628.212746 L210.308789,626.642986 L211.939005,625.134796 L212.995501,624.166424 L214.025726,623.229743 L215.02795,622.326481 L216.000444,621.458369 L217.399654,620.225892 L218.290251,619.453225 L219.145061,618.721762 L219.962354,618.033235 L220.356392,617.705613 C289.863863,559.490008 375.087991,522.856233 461.640288,513.780797 L464.098088,513.549475 L467.451412,513.213408 L471.437501,512.792048 L476.650102,512.224725 L477.017017,512.198987 L478.012458,512.156809 L480.422633,512.098856 L482.76801,512.063977 L485.562626,512.035982 L490.057554,512.00998 L493.264096,512.001324 L497.726433,512.001324 Z" id="Sun" fill="#222222" transform="translate(512.000000, 737.000822) rotate(-180.000000) translate(-512.000000, -737.000822) "></path>
                <path d="M497.726433,62.0013239 L502.257463,62.0124879 L507.02596,62.0356956 L511.978278,62.0717722 L522.473964,62.1739311 L528.312559,62.2488016 L533.056096,62.3276701 L536.864375,62.4059884 L540.446307,62.4948627 L543.812737,62.5949216 L546.974509,62.7067937 L549.460807,62.8094979 L552.275539,62.9446604 L554.487824,63.0676536 L556.585599,63.2004512 L558.185589,63.3139929 L560.462722,63.4969147 L561.903595,63.6275403 L563.623467,63.8009123 L564.938305,63.9479088 L566.202349,64.1024839 L567.118982,64.2235008 C656.31212,76.166554 733.572662,109.695854 801.585443,165.992679 L804.037646,168.033235 L804.854939,168.721762 L805.709749,169.453225 L806.600346,170.225892 L807.999556,171.458369 L808.97205,172.326481 L809.974274,173.229743 L811.529572,174.646757 L813.142031,176.133126 L814.245877,177.159687 L815.94063,178.748672 L818.263987,180.949976 L820.0467,182.655375 L821.251073,183.814979 L823.690183,186.180814 L826.158247,188.597281 L828.641423,191.050541 L831.125869,193.526753 L832.98171,195.390647 L835.435073,197.873719 L837.251706,199.726863 L839.041803,201.565668 L840.799524,203.384295 L842.519031,205.176904 L844.194484,206.937656 L845.820043,208.660713 L846.873146,209.785591 L848.402572,211.432845 L849.386181,212.501783 L850.803254,214.057015 L852.14513,215.549248 L852.995053,216.506187 L853.80723,217.430802 L854.57993,218.321361 L855.311423,219.176136 C855.429809,219.31552 855.546405,219.453341 855.661177,219.589563 L856.327615,220.387416 C913.306032,288.429949 946.853171,364.716475 959.546472,454.831216 L959.972157,457.920059 L960.065353,458.655937 L960.201036,459.828532 L960.331786,461.081032 L960.416213,461.958962 L960.538743,463.338062 L960.65634,464.789176 L960.769005,466.309347 L960.911552,468.438549 L961.04533,470.678246 L961.170339,473.021425 L961.258341,474.8425 L961.368005,477.349897 L961.516059,481.26667 L961.624366,484.658285 L961.701147,487.445259 L961.769158,490.290132 L961.828401,493.18589 L961.867079,495.386883 L961.938145,500.601887 L961.972464,504.378471 L962,508.182514 L962,512.000321 L62.0000002,512.000321 L62.0000002,508.182514 L62.0275356,504.378471 L62.0618553,500.601887 L62.1098763,496.866461 L62.1715987,493.18589 L62.2308415,490.290132 L62.2988532,487.445259 L62.3756338,484.658285 L62.4389738,482.610269 L62.5555015,479.286083 L62.6319947,477.349897 L62.7416585,474.8425 L62.8296609,473.021425 L62.9546702,470.678246 L63.0884483,468.438549 L63.2309952,466.309347 L63.34366,464.789176 L63.4612573,463.338062 L63.583787,461.958962 L63.7112493,460.654836 L63.7989643,459.828532 L63.8888716,459.037741 L63.9809711,458.28334 L64.0752629,457.566205 C76.3475374,367.171536 109.447615,290.661488 165.952936,222.45184 L168.338823,219.589563 L169.049064,218.75333 L169.801377,217.880447 C169.930172,217.732008 170.060648,217.582114 170.19277,217.430802 L171.004947,216.506187 L171.85487,215.549248 L172.74081,214.561714 L174.133466,213.026833 L175.597428,211.432845 L177.126854,209.785591 L178.715906,208.090909 L180.358745,206.354639 L181.480969,205.176904 L183.782425,202.780688 L185.551587,200.954687 L187.956795,198.492667 L189.787874,196.633207 L192.254443,194.14777 L194.115648,192.286643 L195.980031,190.434534 L197.221835,189.207688 L199.694975,186.780724 L201.533856,184.990702 L202.748927,183.814979 L204.550933,182.082158 L206.323027,180.391443 L207.484922,179.290575 L208.629198,178.212746 L210.308789,176.642986 L211.939005,175.134796 L212.995501,174.166424 L214.025726,173.229743 L215.02795,172.326481 L216.000444,171.458369 L217.399654,170.225892 L218.290251,169.453225 L219.145061,168.721762 L219.962354,168.033235 L220.356392,167.705613 C289.863863,109.490008 375.087991,72.8562332 461.640288,63.7807966 L464.098088,63.5494754 L467.451412,63.2134076 L471.437501,62.7920478 L476.650102,62.2247246 L477.017017,62.1989867 L478.012458,62.1568087 L480.422633,62.0988563 L482.76801,62.0639765 L485.562626,62.0359817 L490.057554,62.0099797 L493.264096,62.0013239 L497.726433,62.0013239 Z" id="Sun" fill="#FFD50C" transform="translate(512.000000, 287.000822) rotate(-360.000000) translate(-512.000000, -287.000822) "></path>
            </g>
        </g>
        <g id="Group" mask="url(#mask-4)">
            <g transform="translate(212.001374, 334.000337)">
                <path d="M295.592665,-0.000231465374 L301.132876,0.0266371413 L306.537136,0.0759528094 L309.804578,0.119507774 L312.960082,0.172857101 L316.567068,0.249804852 L318.844764,0.308938844 L321.528686,0.391671259 L323.531147,0.464909133 L324.940995,0.523951171 L327.101024,0.630190058 L328.275248,0.698634684 L329.688648,0.795379028 L331.873399,0.970169361 C393.151423,5.99107515 445.026261,19.2608323 491.295183,41.7989618 L491.295183,41.7989618 L492.131984,42.2074104 L493.0279,42.6552213 L493.978774,43.1399766 L494.980449,43.6592582 L496.028769,44.2106479 L497.119577,44.7917278 L498.826362,45.7137271 L500.605363,46.6889276 L503.065453,48.0578471 L505.595734,49.4874936 L507.519503,50.5879436 L508.80663,51.330479 L510.733853,52.4515897 L512.644441,53.5742155 L514.524367,54.6901955 L516.359602,55.7913687 L518.136117,56.8695741 L519.28091,57.5715878 L520.928382,58.5933781 L521.974157,59.2502252 L522.97305,59.8847741 L523.920905,60.4946068 L524.813565,61.0773051 L525.646874,61.630451 L526.416674,62.1516264 C526.662227,62.3197545 526.896503,62.4821511 527.118809,62.6384133 L527.118809,62.6384133 L528.283604,63.4525321 C566.565445,90.3553654 589.365369,120.916202 597.486646,156.197043 L597.486646,156.197043 L597.586651,156.640838 L597.682252,157.10057 L597.773546,157.577211 L597.86063,158.071737 L597.943602,158.585121 L598.022557,159.118337 L598.097594,159.672359 L598.203014,160.544534 L598.300162,161.469001 L598.389367,162.449048 L598.444586,163.134913 L598.521279,164.214897 L598.56846,164.97043 L598.633552,166.159482 L598.692119,167.418357 L598.74449,168.750343 L598.805245,170.645733 L598.856343,172.684733 L598.932126,176.891779 L598.958008,178.592953 L598.977233,180.252093 L598.990151,181.856025 L598.998425,184.091283 L598.989161,187.054045 L598.977091,188.237606 L598.940047,190.192815 L598.90239,191.24527 L598.873257,191.724297 L598.857617,191.891931 L598.84132,192.009378 L598.51379,193.755689 L598.177908,195.596288 L597.97771,196.752359 L597.787684,197.919727 C591.616388,232.155969 566.705421,265.866846 527.118809,293.360912 L527.118809,293.360912 L526.776459,293.599856 L526.039972,294.104139 C525.911643,294.191019 525.780582,294.279281 525.646874,294.368875 L525.646874,294.368875 L524.813565,294.922021 L523.920905,295.504719 L522.97305,296.114551 L521.974157,296.7491 L520.389213,297.741977 L519.28091,298.427738 L517.551336,299.486098 L516.359602,300.207957 L514.524367,301.30913 L512.644441,302.42511 L511.373256,303.173293 L510.092601,303.922011 L508.80663,304.668847 L506.235374,306.147199 L504.323898,307.233037 L502.442551,308.290157 L500.605363,309.310398 L499.412031,309.96604 L498.248717,310.599246 L496.569122,311.501698 L494.980449,312.340067 L493.496727,313.106194 L492.572812,313.572779 L491.705934,314.001211 L489.891375,314.880501 C447.068071,335.516348 399.433507,348.260476 343.99922,353.915253 L343.998626,689.999663 L0.998626053,689.999663 L0.998,310.292663 L0.839050956,308.725288 L0.394054542,304.718442 L0.143800689,302.519329 L0.121782401,302.185792 L0.0866493637,301.221916 L0.0488044399,299.331885 L0.00780214765,294.788341 L0,292.562261 L0,289.045947 L0.00782454013,286.305392 L0.0297719815,282.446875 L0.06592748,278.419835 L0.120792504,273.239272 L0.185883135,268.808644 L0.242845014,265.903035 L0.32380563,262.683354 L0.385970572,260.689666 L0.473511695,258.359197 L0.551842312,256.61705 L0.637930692,254.977251 L0.707800133,253.811072 L0.834791237,251.981447 L0.917553549,250.94808 L1.03587411,249.640313 L1.13078547,248.708851 L1.26584472,247.528054 L1.37371507,246.685142 L1.44884267,246.142164 C9.23836739,190.545108 31.1069221,142.386037 67.8249621,99.9914035 L69.2421378,98.3643118 L69.8838342,97.6409772 L70.5786788,96.8734157 L71.3236123,96.0645512 L72.1155755,95.2173073 L72.9515094,94.3346079 L73.8283548,93.4193768 L75.2136399,91.9919288 L76.6737679,90.5077308 L77.6836675,89.4916106 L79.2455902,87.9347574 L80.8548234,86.3474681 L82.5010424,84.7396106 L84.1739227,83.1210526 L85.2988893,82.0409422 L86.9932611,80.4264784 L88.6867617,78.8276282 L90.3690663,77.2542593 L92.0298502,75.7162396 L93.119985,74.7154045 L94.1929072,73.7375895 L95.2455576,72.7857186 L96.274877,71.8627153 L97.2778063,70.9715036 L98.7260269,69.700691 L99.6495971,68.9017498 L100.53607,68.1448333 L101.382387,67.4328653 L102.185488,66.7687698 C102.315567,66.662239 102.443718,66.5578247 102.569877,66.4555878 L103.302419,65.8687829 C147.68127,30.3522361 197.437038,9.4411862 256.211875,1.52902848 L258.316029,1.25251438 L258.991526,1.17301094 L259.712207,1.09611343 L260.476566,1.02182184 L261.701708,0.915270571 L263.016657,0.814582631 L264.416331,0.719758022 L265.895648,0.630796744 L267.449526,0.547698796 L269.072884,0.47046418 L271.336659,0.376605428 L274.309021,0.273940315 L276.786346,0.203534887 L279.339008,0.143553157 L281.954962,0.0939951273 L284.622162,0.0548607966 L288.009876,0.0206012103 L290.748339,-0.00033710522 L295.592665,-0.000231465374 Z" id="Outer-Dino" fill="#222222" fill-rule="nonzero"></path>
            </g>
        </g>
        <g id="Group" mask="url(#mask-4)">
            <g transform="translate(256.000000, 384.000000)" id="Dino">
                <path d="M0.00790118489,255.10669 L0.0675484264,249.206153 L0.127896283,245.001775 L0.16973591,242.788639 L0.243460643,239.711022 L0.31570614,237.355204 L0.39851106,235.176606 L0.472820058,233.553351 L0.554679561,232.029849 L0.644441778,230.600023 L0.74245892,229.257799 L0.849083197,227.997102 L0.934911713,227.101427 L1.02592845,226.245631 L1.15561148,225.162173 L1.22412094,224.643424 C8.01947954,173.902439 27.0969812,129.949775 59.1287493,91.2580592 L60.3898308,89.7435423 L61.0060757,89.0182807 L61.6771992,88.2453003 L62.5879782,87.2172682 L63.5722777,86.1269017 L64.408087,85.214292 L65.2831237,84.269613 L66.6616218,82.8000718 L68.1088174,81.2779365 L69.612972,79.7149442 L71.1623471,78.1228319 L72.7452042,76.5133368 L74.3498047,74.898196 L75.4258213,73.8240951 L77.0405754,72.2256273 L78.112492,71.1735094 L80.2296674,69.1173886 L81.26797,68.120341 L82.2881118,67.1486056 L83.2866147,66.2056599 L84.2600005,65.2949816 L85.6653767,63.9970731 L86.5607535,63.1822782 L87.4188401,62.4119226 L88.2361584,61.6894838 L89.0092303,61.0184397 L89.3780869,60.7032774 L90.0782678,60.1158457 C129.184168,27.3740392 173.075975,8.23267535 225.028258,1.18059394 L225.648286,1.10060033 L226.666201,0.9858711 L227.400938,0.912892399 L228.178613,0.842719661 L229.421953,0.742721733 L230.299608,0.679563901 L232.164376,0.561666123 L233.148122,0.506926177 L234.163864,0.454992194 L236.284605,0.359542114 L238.513134,0.275315884 L240.247165,0.219511862 L241.429855,0.185816634 L243.851668,0.126844065 L245.710779,0.0899802884 L248.235793,0.050649455 L250.801263,0.0225424708 L253.393722,0.00565933579 L256,5.00301667e-08 L256,640 L0,640 L0,256 L0.00790118489,255.10669 Z M511.998987,133.430406 L511.998987,131.962152 L511.992355,130.698655 L511.992355,130.698655 L511.979165,129.371536 L511.979165,129.371536 L511.946126,127.292656 L511.946126,127.292656 L511.891112,124.588367 L511.891112,124.588367 L511.853758,123.202794 L511.853758,123.202794 L511.825157,122.329293 L511.825157,122.329293 L511.776329,121.091081 L511.776329,121.091081 L511.739603,120.311722 L511.739603,120.311722 L511.699361,119.567725 L511.699361,119.567725 L511.632073,118.515165 L511.632073,118.515165 L511.556018,117.534792 L511.556018,117.534792 L511.500191,116.919128 L511.500191,116.919128 L511.440088,116.332269 L511.440088,116.332269 L511.375557,115.772904 L511.375557,115.772904 L511.306445,115.23972 C511.294536,115.152965 511.28243,115.067246 511.270124,114.982536 L511.193856,114.486166 L511.193856,114.486166 L511.112628,114.012699 L511.112628,114.012699 L511.026287,113.560823 C511.011462,113.487237 510.996418,113.414496 510.981152,113.342573 L510.886857,112.920626 L510.886857,112.920626 L510.78707,112.516992 L510.78707,112.516992 L510.735069,112.321632 C503.940764,86.9510106 484.866221,64.9745668 452.83942,45.6286108 L451.537158,44.8467155 L451.537158,44.8467155 L450.825561,44.4292736 L450.825561,44.4292736 L450.043561,43.9812807 L450.043561,43.9812807 L449.196318,43.5053156 L449.196318,43.5053156 L447.8144,42.7445602 L447.8144,42.7445602 L446.314691,41.9353714 L446.314691,41.9353714 L444.714593,41.0864517 L444.714593,41.0864517 L443.031512,40.2065037 L443.031512,40.2065037 L441.282852,39.3042301 L441.282852,39.3042301 L439.486018,38.3883335 L439.486018,38.3883335 L437.658413,37.4675163 L437.658413,37.4675163 L435.817444,36.5504814 L435.817444,36.5504814 L434.5913,35.9455235 L434.5913,35.9455235 L432.766731,35.0541312 L432.766731,35.0541312 L431.567637,34.4743264 L431.567637,34.4743264 L429.807815,33.6327507 L429.807815,33.6327507 L428.668,33.0942149 L428.668,33.0942149 L427.02127,32.3266296 L427.02127,32.3266296 L425.972965,31.8454788 L425.972965,31.8454788 L424.487673,31.1760579 L424.487673,31.1760579 L423.563109,30.7684079 L423.563109,30.7684079 L422.287601,30.2213252 L422.287601,30.2213252 L421.894701,30.0574249 C383.197956,13.8552115 339.814201,4.31376523 288.569594,0.700630699 L286.661669,0.569475325 L286.661669,0.569475325 L285.678635,0.511058167 L285.678635,0.511058167 L284.209809,0.438079083 L284.209809,0.438079083 L282.138599,0.35474704 L282.138599,0.35474704 L280.780543,0.308956781 L280.780543,0.308956781 L277.831446,0.226846437 L277.831446,0.226846437 L275.163565,0.168066698 L275.163565,0.168066698 L271.749087,0.10910567 L271.749087,0.10910567 L267.529254,0.0562768017 L267.529254,0.0562768017 L262.483374,0.0169457845 L262.483374,0.0169457845 L257.302625,-0.000650738432 L257.302625,-0.000650738432 L255.998987,-0.000650738432 L255.998987,-0.000650738432 L255.998987,256.000651 L260.550613,255.992016 L260.550613,255.992016 L266.286319,255.95566 L266.286319,255.95566 L270.56658,255.907742 L270.56658,255.907742 L274.049263,255.85299 L274.049263,255.85299 L276.785552,255.797718 L276.785552,255.797718 L279.342932,255.733677 L279.342932,255.733677 L281.695103,255.660867 L281.695103,255.660867 L283.81577,255.579289 L283.81577,255.579289 L285.327948,255.507713 L285.327948,255.507713 L286.345706,255.450348 L286.345706,255.450348 L286.965637,255.410351 L286.965637,255.410351 C338.374356,251.920643 381.889163,242.510254 420.683898,226.446727 L422.287601,225.778675 L422.287601,225.778675 L423.12245,225.422861 L423.12245,225.422861 L424.018399,225.031845 L424.018399,225.031845 L425.465601,224.384958 L425.465601,224.384958 L426.491736,223.917218 L426.491736,223.917218 L428.110046,223.167332 L428.110046,223.167332 L429.234137,222.638983 L429.234137,222.638983 L431.567637,221.525673 L431.567637,221.525673 L433.980513,220.354069 L433.980513,220.354069 L435.817444,219.449519 L435.817444,219.449519 L437.658413,218.532484 L437.658413,218.532484 L439.486018,217.611666 L439.486018,217.611666 L441.282852,216.69577 L441.282852,216.69577 L443.031512,215.793496 L443.031512,215.793496 L444.714593,214.913548 L444.714593,214.913548 L446.314691,214.064629 L446.314691,214.064629 L447.8144,213.25544 L447.8144,213.25544 L449.196318,212.494684 L449.196318,212.494684 L450.043561,212.018719 L450.043561,212.018719 L450.825561,211.570726 L450.825561,211.570726 L451.537158,211.153284 L451.537158,211.153284 L451.864945,210.956826 C484.983325,191.185711 505.823978,166.944058 510.986919,142.324613 L511.135598,141.537767 L511.135598,141.537767 L511.396933,140.252802 L511.396933,140.252802 L511.868397,138.074453 L511.868397,138.074453 L511.88438,137.971321 L511.88438,137.971321 L511.906893,137.72416 L511.906893,137.72416 L511.92747,137.372014 L511.92747,137.372014 L511.940012,137.082239 L511.940012,137.082239 L511.97131,135.97075 L511.97131,135.97075 L511.989233,134.796659 L511.989233,134.796659 L511.998987,133.430406 L511.998987,133.430406 Z" fill="#F2C280" fill-rule="nonzero"></path>
                <g id="Eyes" transform="translate(232.000000, 50.000000)" fill="#222222" fill-rule="nonzero">
                    <path d="M103.032343,0.0128517648 C102.915514,0.0251491044 102.540429,0.0681897929 102.202238,0.0989331419 C97.3937773,0.603124065 92.6591035,2.63833377 88.7975773,5.87253408 C88.0843018,6.46280638 86.4609851,8.0860552 85.8706881,8.7993009 C82.673246,12.6176248 80.8039722,16.9032477 80.1152924,21.9759003 C79.9615692,23.1011068 79.9615692,26.9009848 80.1152924,28.0261913 C80.8039722,33.0988439 82.673246,37.3844668 85.8706881,41.2027907 C86.4609851,41.9160364 88.0843018,43.5392852 88.7975773,44.1295575 C92.616061,47.3268658 96.9018631,49.1960614 101.974728,49.8847124 C103.099982,50.0384292 106.900018,50.0384292 108.025272,49.8847124 C113.098137,49.1960614 117.383939,47.3268658 121.202423,44.1295575 C121.915698,43.5392852 123.539015,41.9160364 124.129312,41.2027907 C127.326754,37.3844668 129.196028,33.0988439 129.884708,28.0261913 C130.038431,26.9009848 130.038431,23.1011068 129.884708,21.9759003 C129.196028,16.9032477 127.326754,12.6176248 124.129312,8.7993009 C123.539015,8.0860552 121.915698,6.46280638 121.202423,5.87253408 C117.396237,2.68752312 113.067392,0.793732828 108.062166,0.123527821 C107.52106,0.0497437835 106.733997,0.0190004346 105.276702,0.006703095 C104.163746,-0.00559424458 103.149173,0.000554425209 103.032343,0.0128517648 Z" id="Path"></path>
                    <path d="M23.0323434,30.0128518 C22.9155137,30.0251491 22.5404292,30.0681898 22.2022382,30.0989331 C17.3937773,30.6031241 12.6591035,32.6383338 8.79757732,35.8725341 C8.08430179,36.4628064 6.46098506,38.0860552 5.87068806,38.7993009 C2.67324602,42.6176248 0.803972207,46.9032477 0.115292381,51.9759003 C-0.0384307938,53.1011068 -0.0384307938,56.9009848 0.115292381,58.0261913 C0.803972207,63.0988439 2.67324602,67.3844668 5.87068806,71.2027907 C6.46098506,71.9160364 8.08430179,73.5392852 8.79757732,74.1295575 C12.616061,77.3268658 16.9018631,79.1960614 21.9747279,79.8847124 C23.0999816,80.0384292 26.9000184,80.0384292 28.0252721,79.8847124 C33.0981369,79.1960614 37.383939,77.3268658 41.2024227,74.1295575 C41.9156982,73.5392852 43.5390149,71.9160364 44.1293119,71.2027907 C47.326754,67.3844668 49.1960278,63.0988439 49.8847076,58.0261913 C50.0384308,56.9009848 50.0384308,53.1011068 49.8847076,51.9759003 C49.1960278,46.9032477 47.326754,42.6176248 44.1293119,38.7993009 C43.5390149,38.0860552 41.9156982,36.4628064 41.2024227,35.8725341 C37.3962369,32.6875231 33.0673922,30.7937328 28.0621657,30.1235278 C27.5210601,30.0497438 26.7339974,30.0190004 25.2767017,30.0067031 C24.1637459,29.9944058 23.149173,30.0005544 23.0323434,30.0128518 Z" id="Path-Copy"></path>
                </g>
                <path d="M207,279.854136 L207,280.340552 L207.006582,280.952952 L207.006582,280.952952 L207.018201,281.55935 L207.018201,281.55935 L207.032353,282.074045 L207.032353,282.074045 L207.063145,282.730898 C207.071409,282.862764 207.080679,282.985732 207.09107,283.100807 L207.125729,283.42336 C207.157611,283.6741 207.197236,283.881797 207.246425,284.062166 C208.586835,289.067392 212.374415,293.396237 218.744437,297.202423 L219.156693,297.441764 C219.312181,297.529349 219.484442,297.624091 219.669591,297.724048 L220.259814,298.037619 L220.259814,298.037619 L221.239131,298.541133 L221.239131,298.541133 L222.26128,299.049462 L222.26128,299.049462 L222.927648,299.371592 L222.927648,299.371592 L223.554763,299.666716 L223.554763,299.666716 L224.119309,299.923175 C224.294473,300.000922 224.455322,300.070282 224.597971,300.129312 C232.003205,303.229862 240.287253,305.081519 250.033188,305.818844 L251.120818,305.895424 L251.120818,305.895424 L251.511208,305.915288 L251.511208,305.915288 L252.211538,305.941165 L252.211538,305.941165 L253.323143,305.968351 L253.323143,305.968351 L254.587195,305.987176 L254.587195,305.987176 L256.647908,306 C256.764994,306 256.882226,306 256.999458,306 L256.999458,256 L255.259074,256.006547 L255.259074,256.006547 L253.323143,256.031649 L253.323143,256.031649 L252.211538,256.058835 L252.211538,256.058835 L251.511208,256.084712 L251.511208,256.084712 L251.120818,256.104576 L251.120818,256.104576 L250.95117,256.115292 C240.805865,256.803972 232.234619,258.673246 224.597971,261.870688 C224.455322,261.929718 224.294473,261.999078 224.119309,262.076825 L223.554763,262.333284 L223.554763,262.333284 L222.927648,262.628408 L222.927648,262.628408 L222.26128,262.950538 L222.26128,262.950538 L221.239131,263.458867 L221.239131,263.458867 L220.576636,263.797507 L220.576636,263.797507 L219.956494,264.122348 C219.759429,264.227034 219.573309,264.327476 219.402019,264.421733 L218.936528,264.684004 C218.867657,264.723975 218.803465,264.761914 218.744437,264.797577 C212.276037,268.659103 208.205617,273.393777 207.197236,278.202238 L207.147854,278.458187 L207.147854,278.458187 L207.025073,279.032343 L207.025073,279.032343 L207.016943,279.109552 L207.016943,279.109552 L207.007189,279.348069 L207.007189,279.348069 L207,279.854136 L207,279.854136 Z" id="Mouth" fill="#222222" fill-rule="nonzero"></path>
            </g>
        </g>
    </g>
</svg>